<svg width="16" height="16" viewBox="0 0 16 16" fill="none" xmlns="http://www.w3.org/2000/svg">
<path d="M7.29995 13.0131C7.39548 13.1033 7.52194 13.1534 7.65329 13.1531C7.78415 13.1543 7.90964 13.1012 7.99995 13.0065C8.09525 12.9136 8.149 12.7862 8.149 12.6531C8.149 12.5201 8.09525 12.3927 7.99995 12.2998L4.19991 8.49976H13.0134C13.2896 8.49976 13.5134 8.2759 13.5134 7.99976C13.5134 7.72361 13.2896 7.49976 13.0134 7.49976H4.19845L8.00662 3.6798C8.10192 3.58694 8.15567 3.45952 8.15567 3.32646C8.15567 3.19341 8.10192 3.06599 8.00662 2.97313C7.81141 2.77816 7.49517 2.77816 7.29995 2.97313L2.63329 7.6398C2.43832 7.83501 2.43832 8.15125 2.63329 8.34646L7.29995 13.0131Z" fill="currentColor"/>
</svg>
