<svg width="60" height="60" viewBox="0 0 60 60" fill="none" xmlns="http://www.w3.org/2000/svg">
<path d="M58.2857 13.3285H1.71429C1.25963 13.3285 0.823593 13.5092 0.502103 13.8306C0.180612 14.1521 0 14.5882 0 15.0428V19.56C0 20.0146 0.180612 20.4507 0.502103 20.7722C0.823593 21.0936 1.25963 21.2743 1.71429 21.2743H58.2857C58.7404 21.2743 59.1764 21.0936 59.4979 20.7722C59.8194 20.4507 60 20.0146 60 19.56V15.0428C60 14.5882 59.8194 14.1521 59.4979 13.8306C59.1764 13.5092 58.7404 13.3285 58.2857 13.3285ZM2.78571 53.6143C2.78571 53.8416 2.87602 54.0596 3.03677 54.2203C3.19751 54.3811 3.41553 54.4714 3.64286 54.4714H56.3571C56.5845 54.4714 56.8025 54.3811 56.9632 54.2203C57.124 54.0596 57.2143 53.8416 57.2143 53.6143V22.9885H2.78571V53.6143ZM23.0829 40.1657L27.2143 30.7371C27.2825 30.5854 27.3934 30.4568 27.5334 30.367C27.6734 30.2772 27.8365 30.2301 28.0029 30.2314H34.5857C34.7298 30.231 34.8717 30.267 34.9982 30.336C35.1247 30.405 35.2318 30.5047 35.3095 30.6261C35.3873 30.7474 35.4332 30.8863 35.443 31.0301C35.4528 31.1739 35.4262 31.3178 35.3657 31.4485L32.7943 37.0971H36.1714C36.3456 37.0959 36.5159 37.1477 36.6599 37.2457C36.8038 37.3437 36.9145 37.4832 36.9771 37.6457C37.0393 37.8098 37.0497 37.989 37.0068 38.1591C36.9638 38.3293 36.8697 38.4822 36.7371 38.5971L25.2857 48.7114C25.1452 48.8362 24.9676 48.9113 24.7802 48.9252C24.5928 48.9392 24.406 48.8912 24.2486 48.7885C24.0891 48.6845 23.9688 48.5302 23.9067 48.3502C23.8446 48.1701 23.8443 47.9745 23.9057 47.7943L26.0914 41.3743H23.8714C23.728 41.374 23.5869 41.3378 23.4612 41.2689C23.3354 41.2 23.2289 41.1007 23.1514 40.98C23.0731 40.8607 23.0258 40.7237 23.0139 40.5815C23.0019 40.4393 23.0256 40.2964 23.0829 40.1657ZM52.5686 9.21426C52.5686 8.98693 52.4783 8.76891 52.3175 8.60816C52.1568 8.44742 51.9388 8.35711 51.7114 8.35711H49.9286V5.35711C49.9286 5.12978 49.8383 4.91177 49.6775 4.75102C49.5168 4.59028 49.2988 4.49997 49.0714 4.49997H42.6429C42.4155 4.49997 42.1975 4.59028 42.0368 4.75102C41.876 4.91177 41.7857 5.12978 41.7857 5.35711V8.35711H40.0029C39.7755 8.35711 39.5575 8.44742 39.3968 8.60816C39.236 8.76891 39.1457 8.98693 39.1457 9.21426V11.6143H52.5686V9.21426ZM20.8543 9.21426C20.8543 8.98693 20.764 8.76891 20.6032 8.60816C20.4425 8.44742 20.2245 8.35711 19.9971 8.35711H18.2143V5.35711C18.2143 5.12978 18.124 4.91177 17.9632 4.75102C17.8025 4.59028 17.5845 4.49997 17.3571 4.49997H10.9286C10.7012 4.49997 10.4832 4.59028 10.3225 4.75102C10.1617 4.91177 10.0714 5.12978 10.0714 5.35711V8.35711H8.28857C8.06124 8.35711 7.84323 8.44742 7.68248 8.60816C7.52173 8.76891 7.43143 8.98693 7.43143 9.21426V11.6143H20.8543V9.21426Z" fill="currentColor"/>
</svg>
