<svg width="60" height="60" viewBox="0 0 60 60" fill="none" xmlns="http://www.w3.org/2000/svg">
<g clip-path="url(#clip0_89_1128)">
<path d="M43.8318 28.3301C43.05 21.9516 38.0159 16.9301 31.6353 16.1645C31.086 16.1018 30.5335 16.0704 29.9805 16.0703C24.3417 16.0789 19.2645 19.4868 17.1202 24.702C14.9759 29.9171 16.1877 35.9108 20.1896 39.8834C21.2431 40.8922 22.0848 42.1011 22.6655 43.4392C23.2462 44.7773 23.5541 46.2178 23.5713 47.6763V49.2857H36.4284V47.668C36.4333 46.2371 36.7243 44.8217 37.2844 43.505C37.8445 42.1883 38.6624 40.997 39.6899 40.0011C41.2364 38.5091 42.4154 36.6784 43.1341 34.6532C43.8528 32.6281 44.0916 30.4637 43.8316 28.3305V28.3301H43.8318ZM30 60C30.6646 59.9992 31.3126 59.7929 31.8552 59.4092C32.3978 59.0255 32.8084 58.4834 33.0307 57.8571H26.9694C27.1917 58.4834 27.6022 59.0256 28.1448 59.4092C28.6874 59.7929 29.3355 59.9992 30 60ZM24.6429 54.6429C24.6433 54.9269 24.7563 55.1992 24.9571 55.4001C25.158 55.601 25.4303 55.714 25.7143 55.7143H34.2858C34.5698 55.714 34.8421 55.601 35.043 55.4001C35.2439 55.1992 35.3569 54.9269 35.3572 54.6429V51.4286H24.6429V54.6429ZM30 9.64289C31.1835 9.64289 32.1429 8.68348 32.1429 7.5V2.14289C32.1429 0.959414 31.1835 0 30 0C28.8165 0 27.8571 0.959414 27.8571 2.14289V7.5C27.8571 8.68348 28.8165 9.64289 30 9.64289ZM11.9155 14.9461C12.7635 15.756 14.0982 15.756 14.9462 14.9461C15.1452 14.7471 15.3031 14.5109 15.4108 14.2509C15.5186 13.9909 15.574 13.7122 15.574 13.4307C15.574 13.1493 15.5186 12.8706 15.4108 12.6106C15.3031 12.3506 15.1452 12.1144 14.9462 11.9154L11.1579 8.12777C10.959 7.92873 10.7228 7.77084 10.4628 7.66311C10.2029 7.55539 9.92423 7.49994 9.64283 7.49994C9.36143 7.49994 9.0828 7.55539 8.82284 7.66311C8.56288 7.77084 8.32669 7.92873 8.12777 8.12777C7.92873 8.3267 7.77083 8.5629 7.66311 8.82287C7.55538 9.08284 7.49993 9.36148 7.49993 9.64289C7.49993 9.9243 7.55538 10.2029 7.66311 10.4629C7.77083 10.7229 7.92873 10.9591 8.12777 11.158L11.9155 14.9461ZM9.64289 30C9.64289 28.8165 8.68348 27.8571 7.5 27.8571H2.14289C0.959883 27.8583 0.00117187 28.817 0 30C0.00117187 31.183 0.959883 32.1417 2.14289 32.1429H7.5C8.68348 32.1429 9.64289 31.1835 9.64289 30ZM13.987 44.496C13.6232 44.3987 13.2401 44.3991 12.8764 44.497C12.5127 44.595 12.1813 44.7871 11.9155 45.0539L8.12789 48.8421C7.92885 49.041 7.77095 49.2772 7.66322 49.5372C7.5555 49.7972 7.50005 50.0758 7.50005 50.3572C7.50005 50.6386 7.5555 50.9173 7.66322 51.1773C7.77095 51.4372 7.92885 51.6734 8.12789 51.8723C8.97563 52.6822 10.3103 52.6822 11.158 51.8723L14.9462 48.0847C15.2131 47.8189 15.4051 47.4874 15.5031 47.1237C15.601 46.76 15.6014 46.3769 15.5041 46.0131C15.4069 45.6492 15.2154 45.3173 14.9491 45.051C14.6827 44.7847 14.3509 44.5932 13.987 44.496ZM48.0845 45.0539C47.8187 44.7871 47.4872 44.5951 47.1236 44.4972C46.7599 44.3993 46.3769 44.3989 46.013 44.4961C45.6492 44.5934 45.3174 44.7848 45.051 45.0511C44.7847 45.3174 44.5933 45.6491 44.496 46.013C44.3987 46.3768 44.3991 46.7599 44.497 47.1236C44.595 47.4873 44.7871 47.8187 45.0539 48.0845L48.8421 51.8721C49.6898 52.682 51.0245 52.682 51.8722 51.8721C52.0713 51.6732 52.2292 51.437 52.3369 51.177C52.4446 50.917 52.5001 50.6384 52.5001 50.357C52.5001 50.0756 52.4446 49.7969 52.3369 49.537C52.2292 49.277 52.0713 49.0408 51.8722 48.8419L48.0845 45.0539ZM57.8571 27.8571H52.5C51.3165 27.8571 50.3571 28.8165 50.3571 30C50.3571 31.1835 51.3165 32.1429 52.5 32.1429H57.8571C59.0406 32.1429 60 31.1835 60 30C60 28.8165 59.0406 27.8571 57.8571 27.8571ZM48.0845 14.9461L51.8721 11.1579C52.1381 10.8919 52.3294 10.5607 52.4268 10.1974C52.5241 9.83404 52.5241 9.45149 52.4268 9.08817C52.3294 8.72485 52.1381 8.39357 51.8722 8.12762C51.6062 7.86167 51.2749 7.67043 50.9115 7.57312C50.5482 7.47576 50.1657 7.47575 49.8024 7.57309C49.4391 7.67043 49.1078 7.8617 48.8419 8.12766L45.0537 11.9153C44.8546 12.1143 44.6968 12.3505 44.589 12.6105C44.4813 12.8705 44.4259 13.1492 44.4259 13.4306C44.4259 13.7121 44.4813 13.9907 44.589 14.2507C44.6968 14.5108 44.8546 14.747 45.0537 14.946C45.9018 15.756 47.2366 15.756 48.0845 14.9461Z" fill="currentColor"/>
</g>
<defs>
<clipPath id="clip0_89_1128">
<rect width="60" height="60" fill="white"/>
</clipPath>
</defs>
</svg>
