<svg width="10" height="10" viewBox="0 0 10 10" fill="none" xmlns="http://www.w3.org/2000/svg">
<path d="M8.84182 9.09474L5.24532 5.50021L8.84182 1.93214C9.02206 1.72339 9.01231 1.41012 8.81942 1.21316C8.62654 1.01619 8.31557 1.00192 8.10569 1.18041L4.49868 4.72201L0.954755 1.15394C0.749671 0.948686 0.418454 0.948686 0.213371 1.15394C0.113829 1.25334 0.0578385 1.38865 0.0578385 1.52981C0.0578385 1.67096 0.113829 1.80627 0.213371 1.90567L3.75203 5.46844L0.155532 9.03121C0.0559906 9.13062 0 9.26592 0 9.40708C0 9.54823 0.0559906 9.68354 0.155532 9.78294C0.254761 9.88204 0.389093 9.93728 0.528853 9.93647C0.66605 9.93729 0.798135 9.8841 0.896916 9.78824L4.49868 6.21488L8.10569 9.84647C8.20492 9.94556 8.33926 10.0008 8.47902 9.99999C8.61695 9.99941 8.74914 9.94427 8.84708 9.84647C8.94593 9.74636 9.00097 9.61066 8.99999 9.4695C8.999 9.32835 8.94206 9.19343 8.84182 9.09474Z" fill="#4C4C4C"/>
</svg>
