<svg width="60" height="60" viewBox="0 0 60 60" fill="none" xmlns="http://www.w3.org/2000/svg">
<g clip-path="url(#clip0_89_1113)">
<path d="M2 0C0.895432 0 0 0.89543 0 2V40.9468C0 41.4991 0.447715 41.9468 1 41.9468H4.58033C5.21404 41.9468 5.68794 41.3649 5.55961 40.7443L4.63406 36.2686C4.47241 35.4852 4.39093 34.6873 4.3909 33.8873C4.3909 27.4322 9.64254 22.1805 16.0977 22.1805C22.5529 22.1805 27.8045 27.4322 27.8045 33.8873V40.9468C27.8045 41.4991 28.2522 41.9468 28.8045 41.9468H31.1954C31.7477 41.9468 32.1954 41.4991 32.1954 40.9468V33.8873C32.1954 27.4322 37.447 22.1805 43.9022 22.1805C50.3573 22.1805 55.609 27.4322 55.609 33.8873C55.609 34.6869 55.5272 35.488 55.3658 36.2685L54.4402 40.7443C54.3118 41.3649 54.7857 41.9468 55.4195 41.9468H59C59.5523 41.9468 60 41.4991 60 40.9468V2C60 0.895432 59.1046 0 58 0H2ZM7.90652 14.0552C7.90652 15.026 7.11952 15.813 6.14871 15.813C5.1779 15.813 4.3909 15.026 4.3909 14.0552C4.3909 13.0844 5.1779 12.2974 6.14871 12.2974C7.11952 12.2974 7.90652 13.0844 7.90652 14.0552ZM15.813 6.14871C15.813 7.11952 15.026 7.90652 14.0552 7.90652C13.0844 7.90652 12.2974 7.11952 12.2974 6.14871C12.2974 5.1779 13.0844 4.3909 14.0552 4.3909C15.026 4.3909 15.813 5.1779 15.813 6.14871ZM55.6091 14.0552C55.6091 15.026 54.8221 15.813 53.8513 15.813C52.8805 15.813 52.0935 15.026 52.0935 14.0552C52.0935 13.0844 52.8805 12.2974 53.8513 12.2974C54.8221 12.2974 55.6091 13.0844 55.6091 14.0552ZM35.711 53.8513C35.711 57.2418 38.4694 60 41.8597 60C44.7618 60 47.2939 57.9412 47.8806 55.1048L48.2937 53.1072C48.5337 51.9467 47.7176 50.8332 46.5387 50.7126L37.9146 49.8302C36.7357 49.7096 35.711 50.6348 35.711 51.8198V53.8513Z" fill="currentColor"/>
<path d="M43.9023 25.696C39.3856 25.696 35.7111 29.3706 35.7111 33.8872V44.2648C35.7111 45.2906 36.4871 46.15 37.5075 46.2544L47.6616 47.2933C48.682 47.3977 49.616 46.7132 49.8237 45.7087L51.9232 35.5564C52.0364 35.0073 52.0935 34.448 52.0936 33.8872C52.0935 29.3707 48.4189 25.696 43.9023 25.696ZM12.1194 55.1048C12.706 57.9412 15.2382 60 18.1402 60C21.5306 60 24.289 57.2418 24.289 53.8513V51.8197C24.289 50.6346 23.2643 49.7095 22.0854 49.8301L13.4613 50.7124C12.2824 50.8331 11.4663 51.9465 11.7063 53.1071L12.1194 55.1048ZM16.0977 25.696C11.581 25.696 7.90649 29.3706 7.90649 33.8872C7.90649 34.4481 7.9638 35.0098 8.07688 35.5566L10.1763 45.7087C10.3841 46.7132 11.318 47.3977 12.3385 47.2933L22.4925 46.2544C23.5129 46.15 24.289 45.2906 24.289 44.2648V33.8873C24.289 29.3707 20.6143 25.696 16.0977 25.696Z" fill="currentColor"/>
</g>
<defs>
<clipPath id="clip0_89_1113">
<rect width="60" height="60" fill="white"/>
</clipPath>
</defs>
</svg>
