<svg width="79" height="23" viewBox="0 0 79 23" fill="none" xmlns="http://www.w3.org/2000/svg">
<g clip-path="url(#clip0_89_1060)">
<path fill-rule="evenodd" clip-rule="evenodd" d="M55.2654 0C56.9225 0 58.3569 0.203714 59.5092 0.5106V4.06246C58.3771 2.89931 57.0439 2.16397 55.285 2.16397C52.0728 2.16397 49.9306 4.43046 49.9306 7.452C49.9306 10.4735 52.0721 12.7394 55.2856 12.7394C57.0439 12.7394 58.3771 12.0047 59.5092 10.8409V14.3934C58.3569 14.6996 56.9225 14.9237 55.2654 14.9237C49.708 14.9237 45.6868 12.1269 45.6868 7.452C45.6868 2.77643 49.7093 0 55.2654 0ZM39.483 5.79797C42.2513 6.18569 44.5547 7.16614 44.5547 10.2074C44.5547 13.7809 41.2001 14.9237 37.5831 14.904C35.0571 14.883 32.9149 14.6385 31.3389 14.005V10.8001C33.5822 12.2702 35.8856 12.7394 37.5831 12.7394C39.3414 12.7394 40.9586 12.3109 40.9586 10.9638C40.9586 9.61663 39.4628 9.28937 36.3909 8.81951C33.7435 8.41143 31.3389 7.268 31.318 4.63417C31.299 1.08231 34.6334 0 37.826 0C39.8878 0 41.8883 0.245114 43.7268 0.857571V4.30757C42.1912 2.94006 39.9074 2.16397 37.6647 2.16397C36.1487 2.16397 34.7137 2.6542 34.7137 3.79763C34.7137 5.22626 36.8349 5.43063 39.483 5.79797ZM24.2458 12.4331C25.8826 12.4331 28.6104 12.0454 29.6818 11.086V14.5971H18.0623C18.6277 13.9235 18.7282 13.4741 18.7282 12.1065V2.7968C18.7282 1.42929 18.6277 0.9798 18.0623 0.306229H29.0753V3.818C28.0045 2.85857 25.2761 2.47086 23.6393 2.47086H22.3466V6.26783H23.2959C24.2256 6.26783 25.66 6.22709 26.61 5.88011V8.69729C25.66 8.35031 24.2256 8.30957 23.2959 8.30957H22.3459V12.4331H24.2458ZM0.642456 0.306229H16.5861V3.818C15.4546 2.85857 13.05 2.47086 10.4842 2.47086V12.0454C10.4842 13.4747 10.6049 13.8624 11.1508 14.5971H6.07779C6.62426 13.8624 6.74504 13.4741 6.74504 12.0454V2.47086C4.17918 2.47086 1.77392 2.85857 0.642456 3.818V0.306229ZM69.52 12.7394C66.6303 12.7394 64.7513 10.3303 64.7513 7.452C64.7513 4.55269 66.6303 2.16397 69.5207 2.16397C72.4097 2.16397 74.2894 4.55269 74.2894 7.452C74.2894 10.3303 72.4091 12.7394 69.52 12.7394ZM69.5207 0C63.7811 0 60.5075 3.36851 60.5075 7.452C60.5075 11.5145 63.7811 14.904 69.5207 14.904C75.2596 14.904 78.5332 11.5145 78.5332 7.452C78.5332 3.36851 75.2596 0 69.5207 0Z" fill="#EE1C2E"/>
<mask id="mask0_89_1060" style="mask-type:luminance" maskUnits="userSpaceOnUse" x="62" y="18" width="17" height="5">
<path d="M62.7547 22.4375H78.4065V18.4795H62.7547V22.4375Z" fill="white"/>
</mask>
<g mask="url(#mask0_89_1060)">
<path fill-rule="evenodd" clip-rule="evenodd" d="M68.73 18.4795H78.3582C78.3673 18.4794 78.3764 18.4816 78.3843 18.4861L78.3869 18.4867C78.3893 18.4882 78.3915 18.49 78.3935 18.492C78.4118 18.5104 78.4131 18.5479 78.385 18.5748C78.3778 18.5814 78.3696 18.587 78.3608 18.5912L78.3439 18.5991C77.2255 19.1143 75.7271 20.6842 75.7271 20.6842C74.6074 21.7593 73.7677 22.4375 71.9769 22.4375H62.7972C62.7691 22.4381 62.756 22.4119 62.7541 22.3856C62.7542 22.3774 62.756 22.3693 62.7594 22.3618C62.7627 22.3543 62.7676 22.3477 62.7737 22.3422C62.7828 22.3346 62.7924 22.3276 62.8024 22.3212C63.8105 21.7521 65.3154 20.1763 65.3154 20.1763C65.9317 19.4403 67.1624 18.4795 68.73 18.4795Z" fill="#00539F"/>
</g>
<mask id="mask1_89_1060" style="mask-type:luminance" maskUnits="userSpaceOnUse" x="47" y="18" width="16" height="5">
<path d="M47.0664 22.4375H62.7182V18.4795H47.0664V22.4375Z" fill="white"/>
</mask>
<g mask="url(#mask1_89_1060)">
<path fill-rule="evenodd" clip-rule="evenodd" d="M53.041 18.4795H62.6699C62.679 18.4794 62.688 18.4816 62.696 18.4861L62.6979 18.4867C62.7003 18.4882 62.7025 18.49 62.7045 18.492C62.7234 18.5104 62.7247 18.5478 62.696 18.5748C62.689 18.5814 62.681 18.5869 62.6725 18.5912L62.6555 18.5991C61.5364 19.1143 60.0387 20.6842 60.0387 20.6842C58.9183 21.7593 58.0794 22.4381 56.2878 22.4381H47.1082C47.082 22.4381 47.0677 22.4125 47.0664 22.3856C47.0665 22.3774 47.0683 22.3693 47.0716 22.3618C47.075 22.3543 47.0799 22.3477 47.086 22.3422C47.0951 22.3346 47.1047 22.3275 47.1147 22.3212C48.1221 21.7527 49.6264 20.1769 49.6264 20.1769C50.2427 19.4409 51.4741 18.4802 53.041 18.4802" fill="#00539F"/>
</g>
<mask id="mask2_89_1060" style="mask-type:luminance" maskUnits="userSpaceOnUse" x="31" y="18" width="17" height="5">
<path d="M31.378 22.4375H47.0292V18.4795H31.378V22.4375Z" fill="white"/>
</mask>
<g mask="url(#mask2_89_1060)">
<path fill-rule="evenodd" clip-rule="evenodd" d="M37.352 18.4795H46.9809C46.99 18.4794 46.999 18.4816 47.007 18.4861L47.0096 18.4867C47.012 18.4882 47.0142 18.49 47.0161 18.492C47.0344 18.5104 47.0357 18.5479 47.0076 18.5748C47.0006 18.5814 46.9927 18.5869 46.9841 18.5912L46.9665 18.5991C45.8481 19.1143 44.3497 20.6842 44.3497 20.6842C43.23 21.7593 42.3904 22.4375 40.5995 22.4375H31.4198C31.3924 22.4375 31.3787 22.4119 31.3774 22.3849C31.3775 22.3767 31.3793 22.3686 31.3826 22.3612C31.386 22.3537 31.3909 22.347 31.397 22.3415C31.4061 22.334 31.4157 22.327 31.4257 22.3205C32.4331 21.7521 33.938 20.1763 33.938 20.1763C34.5544 19.4403 35.7844 18.4795 37.352 18.4795Z" fill="#00539F"/>
</g>
<mask id="mask3_89_1060" style="mask-type:luminance" maskUnits="userSpaceOnUse" x="15" y="18" width="17" height="5">
<path d="M15.689 22.4375H31.3408V18.4795H15.689V22.4375Z" fill="white"/>
</mask>
<g mask="url(#mask3_89_1060)">
<path fill-rule="evenodd" clip-rule="evenodd" d="M21.6636 18.4795H31.2918C31.3009 18.4794 31.31 18.4816 31.3179 18.4861L31.3205 18.4867C31.3229 18.4882 31.3251 18.49 31.3271 18.492C31.346 18.5104 31.3473 18.5478 31.3186 18.5748C31.3116 18.5814 31.3037 18.5869 31.2951 18.5912L31.2781 18.5991C30.1591 19.1143 28.6613 20.6842 28.6613 20.6842C27.541 21.7593 26.7013 22.4375 24.9104 22.4375H15.7308C15.7047 22.4375 15.6903 22.4118 15.689 22.3849C15.6891 22.3767 15.6909 22.3686 15.6943 22.3611C15.6976 22.3537 15.7025 22.347 15.7086 22.3415C15.7177 22.3339 15.7273 22.3269 15.7373 22.3205C16.7447 21.7521 18.249 20.1762 18.249 20.1762C18.8653 19.4402 20.0967 18.4795 21.6636 18.4795Z" fill="#00539F"/>
</g>
<mask id="mask4_89_1060" style="mask-type:luminance" maskUnits="userSpaceOnUse" x="0" y="18" width="16" height="5">
<path d="M0 22.4375H15.6518V18.4795H0V22.4375Z" fill="white"/>
</mask>
<g mask="url(#mask4_89_1060)">
<path fill-rule="evenodd" clip-rule="evenodd" d="M5.97527 18.4795H15.6035C15.6126 18.4794 15.6216 18.4816 15.6296 18.4861L15.6322 18.4867C15.6346 18.4882 15.6368 18.49 15.6387 18.492C15.657 18.5104 15.6583 18.5478 15.6302 18.5748C15.6232 18.5814 15.6153 18.5869 15.6067 18.5912L15.5891 18.5991C14.4707 19.1143 12.9723 20.6842 12.9723 20.6842C11.8526 21.7593 11.013 22.4375 9.22211 22.4375H0.042438C0.0143636 22.4381 0.000652893 22.4118 0 22.3856C9.85013e-05 22.3774 0.00189065 22.3693 0.0052626 22.3618C0.00863455 22.3543 0.0135126 22.3477 0.0195868 22.3422C0.0287032 22.3346 0.0382989 22.3275 0.048314 22.3212C1.05573 21.7527 2.56064 20.1769 2.56064 20.1769C3.17698 19.4402 4.40702 18.4795 5.97527 18.4795Z" fill="#00539F"/>
</g>
</g>
<defs>
<clipPath id="clip0_89_1060">
<rect width="79" height="23" fill="white"/>
</clipPath>
</defs>
</svg>
