<svg width="83" height="22" viewBox="0 0 83 22" fill="none" xmlns="http://www.w3.org/2000/svg">
<g opacity="0.8">
<path d="M3.87336 19.18C3.27736 19.18 2.77336 19.03 2.36136 18.73C1.94936 18.426 1.63736 18.016 1.42536 17.5C1.21336 16.98 1.10736 16.398 1.10736 15.754C1.10736 15.098 1.21336 14.514 1.42536 14.002C1.64136 13.486 1.95736 13.08 2.37336 12.784C2.78936 12.488 3.30136 12.34 3.90936 12.34C4.50136 12.34 5.00936 12.49 5.43336 12.79C5.85736 13.09 6.18136 13.498 6.40536 14.014C6.63336 14.53 6.74736 15.11 6.74736 15.754C6.74736 16.402 6.63336 16.984 6.40536 17.5C6.17736 18.016 5.84936 18.426 5.42136 18.73C4.99336 19.03 4.47736 19.18 3.87336 19.18ZM0.957359 19V10.36H1.84536V14.122H1.74936V19H0.957359ZM3.78336 18.358C4.23536 18.358 4.61136 18.244 4.91136 18.016C5.21136 17.788 5.43536 17.478 5.58336 17.086C5.73536 16.69 5.81136 16.246 5.81136 15.754C5.81136 15.266 5.73736 14.826 5.58936 14.434C5.44136 14.042 5.21536 13.732 4.91136 13.504C4.61136 13.276 4.22936 13.162 3.76536 13.162C3.31336 13.162 2.93736 13.272 2.63736 13.492C2.34136 13.712 2.11936 14.018 1.97136 14.41C1.82336 14.798 1.74936 15.246 1.74936 15.754C1.74936 16.254 1.82336 16.702 1.97136 17.098C2.11936 17.49 2.34336 17.798 2.64336 18.022C2.94336 18.246 3.32336 18.358 3.78336 18.358ZM8.31252 21.88L9.56652 18.478L9.58452 19.486L6.74652 12.52H7.68252L10.0105 18.346H9.62652L11.7745 12.52H12.6745L9.19452 21.88H8.31252Z" fill="#1A1A1A"/>
<g clip-path="url(#clip0_89_1052)">
<path d="M25.7472 8.54285H18.3105L18 10.142H20.7994L19.0714 18.9541H20.9088L22.6369 10.142H25.4367L25.7472 8.54285Z" fill="#E2531D"/>
<path fill-rule="evenodd" clip-rule="evenodd" d="M34.1778 11.9774C34.78 11.4699 35.662 10.9057 36.6058 10.9057C38.014 10.9057 38.8547 11.9859 38.8547 13.7954C38.8547 15.2107 38.4031 16.5553 37.5832 17.5816C36.7909 18.5733 35.737 19.142 34.6919 19.142C34.0382 19.142 33.43 18.8064 33.0353 18.2359L32.8142 19.6395L32.368 22H30.5423L32.7054 11.0937H34.2125L34.1778 11.9774ZM24.8907 12.2993C25.6933 11.4136 26.7634 10.9057 27.8267 10.9057C29.5991 10.9057 30.7444 12.1679 30.7444 14.1214C30.7444 15.5123 30.2714 16.8004 29.4123 17.7484C28.6099 18.6341 27.5397 19.142 26.4764 19.142C24.704 19.142 23.5587 17.8798 23.5587 15.9263C23.5587 14.5355 24.0317 13.2473 24.8907 12.2993ZM28.904 14.1778C28.904 13.0544 28.4576 12.4358 27.647 12.4358C26.4285 12.4358 25.3991 14.0084 25.3991 15.8699C25.3991 16.9932 25.8455 17.6119 26.6561 17.6119C27.8745 17.6119 28.904 16.0393 28.904 14.1778ZM36.9769 14.0211C36.9769 15.9239 35.8628 17.5931 34.5928 17.5931C34.1012 17.5931 33.7048 17.3109 33.4142 16.7541L34.0552 13.5237C34.5646 12.8736 35.2965 12.4547 35.9245 12.4547C36.7944 12.4547 36.9769 13.3065 36.9769 14.0211Z" fill="#E2531D"/>
<path d="M51.5734 18.9541H53.3986L54.9546 11.0937H53.1296L51.5734 18.9541Z" fill="#100F0D"/>
<path fill-rule="evenodd" clip-rule="evenodd" d="M58.4881 11.9774C59.0905 11.4699 59.9726 10.9057 60.9162 10.9057C62.3243 10.9057 63.1653 11.986 63.1653 13.7955C63.1653 15.2107 62.7135 16.5553 61.8936 17.5816C61.1015 18.5733 60.0477 19.142 59.0025 19.142C58.3489 19.142 57.7406 18.8064 57.3459 18.236L57.1248 19.6396L56.6786 22H54.8529L57.016 11.0937H58.5233L58.4881 11.9774ZM61.2876 14.0211C61.2876 15.9239 60.1737 17.5931 58.9036 17.5931C58.4118 17.5931 58.0155 17.3109 57.7248 16.7541L58.3658 13.5238C58.8753 12.8737 59.6069 12.4547 60.2351 12.4547C61.1051 12.4547 61.2876 13.3065 61.2876 14.0211ZM54.5894 7.7594C53.9301 7.7594 53.3937 8.28817 53.3937 8.93807C53.3937 9.56385 53.9142 9.89128 54.4284 9.89128C55.099 9.89128 55.6243 9.37897 55.6243 8.72504C55.6243 8.09111 55.1037 7.7594 54.5894 7.7594ZM65.9583 14.309C66.3144 13.1503 67.142 12.3795 68.0423 12.3795C69.0496 12.3795 69.2002 13.2157 69.2002 13.7141C69.2002 13.9114 69.1808 14.1066 69.1413 14.309H65.9583ZM64.016 15.8011C64.016 12.8729 66.2005 10.9057 68.2406 10.9057C69.8547 10.9057 70.7433 11.9432 70.7433 13.8268C70.7433 14.5453 70.497 15.2705 70.4021 15.4893L70.3811 15.5383H65.775C65.7189 16.2347 65.859 16.7764 66.1925 17.1492C66.507 17.5011 66.9882 17.6871 67.5841 17.6871C68.0234 17.6871 68.5845 17.4681 69.0852 17.1011L69.1582 17.0474L69.8462 18.269L69.7864 18.3121C69.3577 18.6221 68.444 19.142 67.1444 19.142C65.2146 19.142 64.016 17.8619 64.016 15.8011ZM76.8613 12.7219L77.4786 11.0908L77.4116 11.058C77.1997 10.9542 76.9461 10.9057 76.6147 10.9057C75.8125 10.9057 74.9808 11.4673 74.3118 12.4539L74.4366 11.0937H72.9246L71.3876 18.9541H73.2129L74.1212 14.2496C74.705 13.1607 75.412 12.5612 76.1128 12.5612C76.4229 12.5612 76.6409 12.5989 76.7798 12.6764L76.8613 12.7219ZM80.3927 14.2256C80.4743 14.2705 80.5571 14.3163 80.6398 14.3633C81.8655 15.038 82.3661 15.6871 82.3661 16.6034C82.3661 18.0981 81.0948 19.142 79.2748 19.142C78.253 19.142 77.1016 18.507 76.5375 17.6321L76.4976 17.5703L77.6102 16.6556L77.6607 16.7229C78.1541 17.3784 78.7532 17.7248 79.3923 17.7248C80.0669 17.7248 80.637 17.3059 80.637 16.8101C80.637 16.3614 80.2781 16.1176 79.3285 15.5844C78.1686 14.9384 77.6514 14.2629 77.6514 13.3944C77.6514 11.9756 78.882 10.9057 80.5134 10.9057C81.4109 10.9057 82.2515 11.2959 82.9447 12.0342L83 12.0933L81.9608 13.1026L81.9047 13.044C81.4465 12.5649 81.0003 12.3418 80.5013 12.3418C79.8727 12.3418 79.3806 12.7298 79.3806 13.2251C79.3806 13.6688 79.8493 13.9268 80.3923 14.2255L80.3927 14.2256Z" fill="#100F0D"/>
<path d="M58.2773 1.03769L57.6289 -6.10352e-05L49.7433 5.04457L50.3916 6.08244L52.4613 4.75845L47.4317 16.8056V8.0712L49.3119 3.56706L53.2658 1.03769L52.6173 -6.10352e-05L44.7318 5.04457L45.3801 6.08244L47.4497 4.75845L42.2257 17.271L42.689 8.56205H40.8347L40.5672 18.9541H41.5231H42.1363H42.8881L45.975 11.5603L46.0527 18.9541H46.5346H47.4317H47.8996L54.3235 3.56706L58.2773 1.03769Z" fill="#100F0D"/>
</g>
</g>
<defs>
<clipPath id="clip0_89_1052">
<rect width="65" height="22" fill="white" transform="translate(18)"/>
</clipPath>
</defs>
</svg>
