<svg width="17" height="23" viewBox="0 0 17 23" fill="none" xmlns="http://www.w3.org/2000/svg">
<path d="M6.69878 0C3.88669 0 1.72899 2.53521 2.21126 5.3232C2.2723 5.67593 2.60836 5.91086 2.95945 5.85011C3.31187 5.78937 3.54826 5.45512 3.48739 5.10339C3.14252 3.10909 4.68392 1.29251 6.69883 1.29251C8.70765 1.29251 10.2519 3.10052 9.91182 5.0955C9.85177 5.44741 10.089 5.78114 10.4414 5.84102C10.794 5.90113 11.1284 5.66417 11.1885 5.31226C11.6618 2.53547 9.51433 0 6.69878 0Z" fill="#1A1A1A"/>
<path d="M13.5893 10.3673C13.1005 9.41005 11.94 9.04147 10.9993 9.50565C10.5558 8.63726 9.54269 8.23533 8.63193 8.55092V4.59356C8.63193 3.5387 7.78256 2.65734 6.73829 2.62873C5.64406 2.59771 4.73737 3.47239 4.73737 4.5668V14.5227L3.97675 13.7276C3.24656 12.9647 2.02404 12.9111 1.25121 13.6083C0.435767 14.3439 0.395102 15.5966 1.14601 16.3838L5.51776 21.0377C6.1275 21.6865 6.98836 22.0588 7.87969 22.0588H13.1524C14.9376 22.0588 16.39 20.6092 16.39 18.8275V12.1065C16.39 10.6704 14.8722 9.73417 13.5893 10.3673H13.5893Z" fill="#1A1A1A"/>
</svg>
