<svg width="60" height="60" viewBox="0 0 60 60" fill="none" xmlns="http://www.w3.org/2000/svg">
<g clip-path="url(#clip0_89_1118)">
<path d="M42.8591 1.46051C42.5289 1.12617 42.1978 0.790544 41.8738 0.483982L41.8719 0.482107C41.1952 -0.159963 40.1315 -0.159729 39.4552 0.482341C39.1258 0.794177 38.7891 1.13461 38.4533 1.47492C36.0426 3.92578 31.8748 8.86664 31.8748 12.3045C31.8747 17.1505 35.8177 21.3278 40.6636 21.3278C45.5096 21.3278 49.4526 17.1504 49.4526 12.3045C49.4526 8.83218 45.3061 3.94406 42.8591 1.46051Z" fill="currentColor"/>
<path d="M59.0277 17.9977C56.9301 16.9492 54.9407 16.0132 52.6844 15.1232C51.492 20.6687 46.56 24.8434 40.6636 24.8434C33.8796 24.8434 28.359 19.3228 28.359 12.5388C28.359 11.984 28.4599 11.4179 28.5713 10.8521C19.2678 11.0408 10.3889 13.2887 0.971508 17.9977C0.0954139 18.4375 -0.244196 19.4938 0.185297 20.3563L12.0333 44.054C12.4272 44.8439 13.3384 45.2039 14.1464 44.9398C15.6192 44.463 17.1115 44.0746 18.6122 43.7353L8.9126 24.5483C7.60092 21.9498 8.63287 18.7792 11.2421 17.4622C13.7536 16.1673 16.9757 17.1157 18.3264 19.7917L29.7866 42.4602C35.1458 42.448 40.7294 43.2715 45.853 44.9347C46.6718 45.2025 47.5799 44.8283 47.9679 44.0489L59.8142 20.3564C60.2482 19.4877 59.8963 18.432 59.0277 17.9977Z" fill="currentColor"/>
<path d="M29.8825 49.4526C29.7194 49.4526 29.5657 49.4861 29.4064 49.5006L15.1884 21.3758C14.7507 20.509 13.688 20.1571 12.8263 20.5999C11.9595 21.0376 11.6127 22.0951 12.0504 22.962L26.2036 50.9589C25.2225 51.9171 24.6091 53.2496 24.6091 54.726C24.6091 57.6339 26.9746 59.9994 29.8825 59.9994C32.7904 59.9994 35.1559 57.6339 35.1559 54.726C35.1558 51.8181 32.7903 49.4526 29.8825 49.4526Z" fill="currentColor"/>
</g>
<defs>
<clipPath id="clip0_89_1118">
<rect width="60" height="60" fill="white"/>
</clipPath>
</defs>
</svg>
